# xmcd
#
# Track frame offsets:
#	150
#	20989
#	34952
#	55275
#	82066
#	100766
#	118905
#	133694
#	159231
#	178384
#	193601
#	213569
#
# Disc length: 3063 seconds
#
# Revision: 1
# Processed by: cddbd v1.5.2PL0 Copyright (c) Steve Scherf et al.
# Submitted via: audiograbber 1.83.01
#
DISCID=b40bf50c
DTITLE=Wilco - Sky Blue Sky
DYEAR=2007
DGENRE=Rock
TTITLE0=You Are My Face
TTITLE1=Either Way
TTITLE2=Hate It Here
TTITLE3=Impossible Germany
TTITLE4=Leave Me  Like You Found Me 
TTITLE5=On and On and On
TTITLE6=Please Be Patient with Me
TTITLE7=Shake It Off
TTITLE8=Side with the Seeds
TTITLE9=Sky Blue Sky
TTITLE10=Walken
TTITLE11=What Light
EXTD=
EXTT0=
EXTT1=
EXTT2=
EXTT3=
EXTT4=
EXTT5=
EXTT6=
EXTT7=
EXTT8=
EXTT9=
EXTT10=
EXTT11=
PLAYORDER=
